<svg xmlns="http://www.w3.org/2000/svg" viewBox="0 0 32 32"><title>safe android app aplication phone</title><g id="safe_android_app_aplication_phone" data-name="safe android app aplication phone"><path d="M15.74,31C.15,26.8,1,8.13,1,7.94a1,1,0,0,1,.6-.86l14-6a1,1,0,0,1,.78,0l14,6a1,1,0,0,1,.6.86c0,.19.86,18.86-14.73,23A1.14,1.14,0,0,1,15.74,31ZM3,8.66C3,17.87,7.06,26.44,16,29,28.28,25.5,29,11.74,29,8.66L16,3.09Z"/><path d="M15.67,26.77C7,23.77,5.35,14.53,5.06,10.69a1,1,0,0,1,.6-1l10-4.27a1,1,0,0,1,.78,0l10,4.27a1,1,0,0,1,.6,1C26.65,14.53,25,23.77,16.33,26.77A1.06,1.06,0,0,1,15.67,26.77ZM7.12,11.25c.45,4.28,2.24,11,8.88,13.51,6.65-2.49,8.44-9.23,8.88-13.51L16,7.44Z"/><path d="M14.29,18.71l-2-2a1,1,0,0,1,1.42-1.42L15,16.59l3.29-3.3a1,1,0,0,1,1.42,1.42l-4,4A1,1,0,0,1,14.29,18.71Z"/></g></svg>