<svg xmlns="http://www.w3.org/2000/svg" width="47.999" height="48" viewBox="0 0 47.999 48">
  <g>
    <circle cx="24.001" cy="3.633" r="0.727" fill="#1a171b"/>
    <path d="M44.365,0H3.637A3.641,3.641,0,0,0,0,3.636V38.545a3.641,3.641,0,0,0,3.637,3.636H16.2l-1.454,4.364H9.455a.728.728,0,1,0,0,1.455h29.09a.728.728,0,1,0,0-1.455H33.251L31.8,42.181H44.363A3.641,3.641,0,0,0,48,38.545V3.636A3.638,3.638,0,0,0,44.365,0ZM16.283,46.545l1.454-4.364H30.264l1.454,4.364Zm30.264-8a2.185,2.185,0,0,1-2.182,2.182H3.638a2.185,2.185,0,0,1-2.182-2.182V36.363H46.547ZM22.67,16.7a11.076,11.076,0,0,0,2.452.953v0c-.127,3.932-2.753,7.083-5.962,7.083-3.29,0-5.966-3.311-5.966-7.38a7.827,7.827,0,0,1,.21-1.839A12.639,12.639,0,0,1,22.67,16.7Zm-8.622-2.821a5.654,5.654,0,0,1,5.111-2.723,5.589,5.589,0,0,1,5.867,4.965,10.908,10.908,0,0,1-1.693-.716,14.968,14.968,0,0,0-6.869-1.749A13.147,13.147,0,0,0,14.048,13.875ZM16.115,25.4a6.283,6.283,0,0,0,6.084,0,5,5,0,0,0,1.995,2.146c-.382,1.633-2.558,2.942-5.042,2.942S14.5,29.2,14.112,27.577A4.812,4.812,0,0,0,16.115,25.4Zm3.037,6.544c3.075,0,5.708-1.636,6.386-3.806h0l.13.037c.486.115.965.248,1.44.389a22.154,22.154,0,0,1,3.188,1.2,3.684,3.684,0,0,1,2.225,3.287v1.857H5.784v-1.86a3.679,3.679,0,0,1,2.221-3.282,22.359,22.359,0,0,1,3.182-1.2c.478-.143.95-.274,1.442-.391.045-.01.089-.021.134-.034C13.434,30.312,16.07,31.946,19.152,31.946Zm27.395,2.963H33.976V33.052a5.121,5.121,0,0,0-3.057-4.6,23.519,23.519,0,0,0-3.4-1.278c-.5-.148-1.006-.289-1.515-.409a4.4,4.4,0,0,1-.719-.275,3.558,3.558,0,0,1-1.848-1.932,9.415,9.415,0,0,0,3.138-7.2c0-.081,0-.158-.009-.236l0-.094v0C26.424,12.641,23.448,9.7,19.158,9.7a7.042,7.042,0,0,0-7.048,5.021v0a9.133,9.133,0,0,0-.372,2.631,9.417,9.417,0,0,0,3.13,7.2A3.377,3.377,0,0,1,13.024,26.5h0a4.057,4.057,0,0,1-.735.263c-.518.122-1.017.26-1.52.411A23.724,23.724,0,0,0,7.38,28.451a5.115,5.115,0,0,0-3.053,4.6v1.86H1.454V7.273H46.545V34.909Zm0-29.09H1.456V3.637A2.185,2.185,0,0,1,3.638,1.455H44.366a2.185,2.185,0,0,1,2.182,2.182V5.819Z" fill="#1a171b"/>
    <path d="M26.426,37.818H21.577a.728.728,0,1,0,0,1.455h4.849a.728.728,0,1,0,0-1.455Z" fill="#1a171b"/>
    <path d="M30.435,13.092H36.5a.727.727,0,1,0,0-1.454H30.435a.727.727,0,1,0,0,1.454Z" fill="#1a171b"/>
    <path d="M40.373,13.092h3.021a.727.727,0,0,0,0-1.454H40.373a.727.727,0,0,0,0,1.454Z" fill="#1a171b"/>
    <path d="M30.435,18.911h4.039a.728.728,0,1,0,0-1.455H30.435a.728.728,0,1,0,0,1.455Z" fill="#1a171b"/>
    <path d="M38.353,18.911H43.4a.728.728,0,0,0,0-1.455H38.353a.728.728,0,1,0,0,1.455Z" fill="#1a171b"/>
    <path d="M30.435,24.729h9.081a.727.727,0,1,0,0-1.454H30.435a.727.727,0,1,0,0,1.454Z" fill="#1a171b"/>
  </g>
</svg>
