<?xml version="1.0" encoding="UTF-8"?>
<!DOCTYPE svg PUBLIC "-//W3C//DTD SVG 1.1//EN" "http://www.w3.org/Graphics/SVG/1.1/DTD/svg11.dtd">
<!-- Creator: CorelDRAW -->
<svg xmlns="http://www.w3.org/2000/svg" xml:space="preserve" width="6.82666in" height="6.82666in" style="shape-rendering:geometricPrecision; text-rendering:geometricPrecision; image-rendering:optimizeQuality; fill-rule:evenodd; clip-rule:evenodd"
viewBox="0 0 6.82666 6.82666"
 xmlns:xlink="http://www.w3.org/1999/xlink">
 <defs>
  <style type="text/css">
   <![CDATA[
    .fil2 {fill:none}
    .fil1 {fill:#1976D2}
    .fil0 {fill:#64B5F6}
    .fil3 {fill:#3E2723;fill-rule:nonzero}
    .fil4 {fill:#F7D24D;fill-rule:nonzero}
   ]]>
  </style>
   <clipPath id="id0">
    <path d="M3.41333 -3.93701e-006c1.88513,0 3.41333,1.5282 3.41333,3.41333 0,1.88513 -1.5282,3.41333 -3.41333,3.41333 -1.88513,0 -3.41333,-1.5282 -3.41333,-3.41333 0,-1.88513 1.5282,-3.41333 3.41333,-3.41333z"/>
   </clipPath>
 </defs>
 <g id="Layer_x0020_1">
  <metadata id="CorelCorpID_0Corel-Layer"/>
  <path class="fil0" d="M3.41333 -3.93701e-006c1.88513,0 3.41333,1.5282 3.41333,3.41333 0,1.88513 -1.5282,3.41333 -3.41333,3.41333 -1.88513,0 -3.41333,-1.5282 -3.41333,-3.41333 0,-1.88513 1.5282,-3.41333 3.41333,-3.41333z"/>
  <g style="clip-path:url(#id0)">
   <g id="_357809048">
    <g>
     <polygon id="_4348733841" class="fil1" points="3.41241,1.54667 7.19867,5.33294 7.60844,6.36264 3.82217,2.57637 "/>
     <polygon id="_434873624" class="fil1" points="4.17617,3.42747 7.96244,7.21374 7.91754,7.25102 4.13127,3.46474 "/>
     <polygon id="_434874392" class="fil1" points="4.13127,3.46474 7.91754,7.25102 7.93132,7.30746 4.14505,3.52119 "/>
     <polygon id="_434874152" class="fil1" points="4.14505,3.52119 7.93132,7.30746 8.19942,8.40542 4.41315,4.61915 "/>
     <polygon id="_434874296" class="fil1" points="4.41315,4.61915 8.19942,8.40542 7.32973,7.85563 3.54346,4.06935 "/>
     <polygon id="_434874896" class="fil1" points="2.65974,3.45226 6.44601,7.23853 5.58415,6.50818 1.79788,2.72191 "/>
     <polygon id="_434874680" class="fil1" points="3.2832,4.08473 7.06946,7.871 6.20269,8.4068 2.41643,4.62053 "/>
     <polygon id="_434874728" class="fil1" points="3.54346,5.28 7.32973,9.06627 7.2932,9.06627 3.50694,5.28 "/>
     <polygon id="_434874776" class="fil1" points="3.50694,5.28 7.2932,9.06627 7.10599,9.06627 3.31972,5.28 "/>
     <polygon id="_434875136" class="fil1" points="3.31972,5.28 7.10599,9.06627 7.06946,9.06627 3.2832,5.28 "/>
     <polygon id="_434874848" class="fil1" points="2.70453,3.49021 6.4908,7.27648 6.44601,7.23853 2.65974,3.45226 "/>
     <polygon id="_434875064" class="fil1" points="3.54346,4.06935 7.32973,7.85563 7.32973,8.92796 3.54346,5.14169 "/>
     <polygon id="_434874752" class="fil1" points="3.54346,5.14169 7.32973,8.92796 7.32973,9.06627 3.54346,5.28 "/>
     <polygon id="_434874920" class="fil1" points="3.82217,2.57637 7.60844,6.36264 7.63017,6.41725 3.8439,2.63098 "/>
     <polygon id="_434874632" class="fil1" points="5.02878,2.7196 8.81504,6.50587 7.96244,7.21374 4.17617,3.42747 "/>
    </g>
    <polygon id="_357809648" class="fil1" points="3.90199,2.63532 5.02878,2.7196 4.17617,3.42747 4.13127,3.46474 4.14505,3.52119 4.41315,4.61915 3.54346,4.06935 3.54346,5.14169 3.54346,5.28 3.50694,5.28 3.31972,5.28 3.2832,5.28 3.2832,5.14169 3.2832,4.08473 2.41643,4.62053 2.69013,3.54672 2.70453,3.49021 2.65974,3.45226 1.79788,2.72191 2.90337,2.65042 2.96177,2.64664 2.98392,2.59257 3.41241,1.54667 3.82217,2.57637 3.8439,2.63098 "/>
   </g>
  </g>
  <path class="fil2" d="M3.41333 -3.93701e-006c1.88513,0 3.41333,1.5282 3.41333,3.41333 0,1.88513 -1.5282,3.41333 -3.41333,3.41333 -1.88513,0 -3.41333,-1.5282 -3.41333,-3.41333 0,-1.88513 1.5282,-3.41333 3.41333,-3.41333z"/>
  <polygon class="fil3" points="3.54346,3.75528 3.54346,5.14169 3.54346,5.28 3.50694,5.28 3.31972,5.28 3.2832,5.28 3.2832,5.14169 3.2832,3.77525 3.4178,3.63598 3.42433,3.62922 "/>
  <polygon class="fil4" points="3.82217,2.57637 3.41241,1.54667 2.98392,2.59257 2.96177,2.64664 2.90337,2.65042 1.79788,2.72191 2.65974,3.45226 2.70453,3.49021 2.69013,3.54672 2.41643,4.62053 3.3774,4.0265 3.42709,3.99578 3.47626,4.02687 4.41315,4.61915 4.14505,3.52119 4.13127,3.46474 4.17617,3.42747 5.02878,2.7196 3.90199,2.63532 3.8439,2.63098 "/>
 </g>
</svg>
